<mxfile host="app.diagrams.net" agent="Mozilla/5.0 (Windows NT 10.0; Win64; x64) AppleWebKit/537.36 (KHTML, like Gecko) Chrome/128.0.0.0 Safari/537.36 OPR/114.0.0.0" version="26.0.4">
  <diagram name="Página-1" id="CO1qfjglEJfrbXGgm2Sr">
    <mxGraphModel dx="719" dy="424" grid="1" gridSize="10" guides="1" tooltips="1" connect="1" arrows="1" fold="1" page="1" pageScale="1" pageWidth="827" pageHeight="1169" math="0" shadow="0">
      <root>
        <mxCell id="0" />
        <mxCell id="1" parent="0" />
        <mxCell id="XRZ5L59FE1SAdeY0s_Vh-1" value="Enum Lanes&lt;div&gt;&lt;br&gt;&lt;div&gt;{&lt;span style=&quot;background-color: transparent; color: light-dark(rgb(0, 0, 0), rgb(255, 255, 255));&quot;&gt;Top,Mid,.Jg,Adc,Sup}&lt;/span&gt;&lt;/div&gt;&lt;/div&gt;" style="whiteSpace=wrap;html=1;aspect=fixed;" vertex="1" parent="1">
          <mxGeometry x="280" y="40" width="154" height="154" as="geometry" />
        </mxCell>
        <mxCell id="XRZ5L59FE1SAdeY0s_Vh-2" value="Enum TiposDeChampions&lt;div&gt;{Mago,Tank,Duelista,Atiradores,&lt;/div&gt;&lt;div&gt;Assasinos, Suportes}&lt;/div&gt;&lt;div&gt;&lt;br&gt;&lt;/div&gt;&lt;div&gt;&lt;br&gt;&lt;/div&gt;" style="whiteSpace=wrap;html=1;aspect=fixed;" vertex="1" parent="1">
          <mxGeometry x="310" y="240" width="176.5" height="176.5" as="geometry" />
        </mxCell>
        <mxCell id="XRZ5L59FE1SAdeY0s_Vh-3" value="String AdicionandoCampao =&lt;div&gt;{Lane/TipoCampeao/Habilidades}&lt;span style=&quot;background-color: transparent; color: light-dark(rgb(0, 0, 0), rgb(255, 255, 255));&quot;&gt;&amp;nbsp;&lt;/span&gt;&lt;/div&gt;" style="whiteSpace=wrap;html=1;aspect=fixed;" vertex="1" parent="1">
          <mxGeometry x="560" y="70" width="220" height="220" as="geometry" />
        </mxCell>
        <mxCell id="XRZ5L59FE1SAdeY0s_Vh-6" value="" style="endArrow=classic;html=1;rounded=0;exitX=1;exitY=0.52;exitDx=0;exitDy=0;exitPerimeter=0;entryX=0.004;entryY=0.586;entryDx=0;entryDy=0;entryPerimeter=0;" edge="1" parent="1" source="XRZ5L59FE1SAdeY0s_Vh-1" target="XRZ5L59FE1SAdeY0s_Vh-3">
          <mxGeometry width="50" height="50" relative="1" as="geometry">
            <mxPoint x="440" y="120" as="sourcePoint" />
            <mxPoint x="550" y="200" as="targetPoint" />
            <Array as="points">
              <mxPoint x="520" y="120" />
              <mxPoint x="520" y="200" />
            </Array>
          </mxGeometry>
        </mxCell>
        <mxCell id="XRZ5L59FE1SAdeY0s_Vh-9" value="" style="endArrow=classic;html=1;rounded=0;exitX=1;exitY=0;exitDx=0;exitDy=0;" edge="1" parent="1" source="XRZ5L59FE1SAdeY0s_Vh-2">
          <mxGeometry width="50" height="50" relative="1" as="geometry">
            <mxPoint x="440" y="320" as="sourcePoint" />
            <mxPoint x="560" y="240" as="targetPoint" />
            <Array as="points">
              <mxPoint x="440" y="240" />
              <mxPoint x="480" y="240" />
            </Array>
          </mxGeometry>
        </mxCell>
        <mxCell id="XRZ5L59FE1SAdeY0s_Vh-13" value="ObejetoDeValor (Habilidades) = {Tecla de Ativacao , Nome , Dano , Tempo de Recarga , Custo de Mana (Booleano = È ultimate (Sim/Nao)&lt;span style=&quot;background-color: transparent; color: light-dark(rgb(0, 0, 0), rgb(255, 255, 255));&quot;&gt;}&lt;br&gt;String Passivas =&amp;nbsp;&lt;/span&gt;" style="whiteSpace=wrap;html=1;aspect=fixed;" vertex="1" parent="1">
          <mxGeometry x="575" y="350" width="190" height="190" as="geometry" />
        </mxCell>
        <mxCell id="XRZ5L59FE1SAdeY0s_Vh-15" value="" style="endArrow=classic;html=1;rounded=0;entryX=0.574;entryY=0.997;entryDx=0;entryDy=0;entryPerimeter=0;exitX=0.581;exitY=-0.003;exitDx=0;exitDy=0;exitPerimeter=0;" edge="1" parent="1" source="XRZ5L59FE1SAdeY0s_Vh-13" target="XRZ5L59FE1SAdeY0s_Vh-3">
          <mxGeometry width="50" height="50" relative="1" as="geometry">
            <mxPoint x="660" y="340" as="sourcePoint" />
            <mxPoint x="710" y="290" as="targetPoint" />
          </mxGeometry>
        </mxCell>
        <mxCell id="XRZ5L59FE1SAdeY0s_Vh-16" value="String DetalhesDoCampeao = (Regiao/Descricao da Historia)&lt;div&gt;&lt;br&gt;&lt;/div&gt;" style="whiteSpace=wrap;html=1;aspect=fixed;" vertex="1" parent="1">
          <mxGeometry x="840" y="80" width="200" height="200" as="geometry" />
        </mxCell>
        <mxCell id="XRZ5L59FE1SAdeY0s_Vh-20" value="" style="endArrow=classic;html=1;rounded=0;entryX=1;entryY=0.5;entryDx=0;entryDy=0;exitX=0;exitY=0.5;exitDx=0;exitDy=0;" edge="1" parent="1" source="XRZ5L59FE1SAdeY0s_Vh-16" target="XRZ5L59FE1SAdeY0s_Vh-3">
          <mxGeometry width="50" height="50" relative="1" as="geometry">
            <mxPoint x="820" y="180" as="sourcePoint" />
            <mxPoint x="850" y="150" as="targetPoint" />
          </mxGeometry>
        </mxCell>
      </root>
    </mxGraphModel>
  </diagram>
</mxfile>
